<svg width="280" height="31" viewBox="0 0 280 31" fill="none" xmlns="http://www.w3.org/2000/svg">
<path d="M11.2 5.08C13.36 5.08 15.1867 5.28 16.68 5.68C18.1733 6.08 19.36 6.85333 20.24 8C21.1467 9.12 21.6 10.7333 21.6 12.84C21.6 13.7733 21.4533 14.7333 21.16 15.72C20.8933 16.68 20.5467 17.52 20.12 18.24C19.72 18.96 19.36 19.4267 19.04 19.64C18.6667 19.9067 17.84 20.12 16.56 20.28C15.28 20.4133 13.7733 20.48 12.04 20.48C11.4267 20.48 10.48 20.4533 9.2 20.4V28H2V5.2C4.8 5.12 7.86667 5.08 11.2 5.08ZM14.2 15.36C14.4667 15.0133 14.6 14.32 14.6 13.28C14.6 11.92 14.3067 10.96 13.72 10.4C13.16 9.84 12.1733 9.56 10.76 9.56C10.28 9.56 9.76 9.6 9.2 9.68V15.76C9.46667 15.7867 9.98667 15.8 10.76 15.8C12.8133 15.8 13.96 15.6533 14.2 15.36ZM45.0584 28H37.4984L36.1384 22.24C36.0851 22.0267 35.9918 21.6667 35.8584 21.16C35.7518 20.6267 35.6184 20.24 35.4584 20C35.2984 19.7333 35.0718 19.56 34.7784 19.48C34.0318 19.5067 32.9384 19.52 31.4984 19.52V28H24.2984V5.4C27.5251 5.16 30.5384 5.04 33.3384 5.04C35.8718 5.04 37.9251 5.25333 39.4984 5.68C41.0718 6.08 42.2451 6.78667 43.0184 7.8C43.8184 8.78667 44.2184 10.1467 44.2184 11.88C44.2184 13.5067 43.8451 14.7867 43.0984 15.72C42.3518 16.6267 41.1518 17.1733 39.4984 17.36V17.6C40.4318 17.68 41.2051 17.9867 41.8184 18.52C42.4584 19.0267 42.8851 19.68 43.0984 20.48L45.0584 28ZM31.4984 15C31.7384 15.0267 32.2051 15.04 32.8984 15.04C34.9518 15.04 36.1518 14.8667 36.4984 14.52C36.8184 14.2 36.9784 13.4533 36.9784 12.28C36.9784 11.1867 36.6851 10.44 36.0984 10.04C35.5384 9.64 34.6051 9.44 33.2984 9.44C33.0051 9.44 32.4051 9.46667 31.4984 9.52V15ZM58.7716 28.52C54.7982 28.52 51.8116 27.5867 49.8116 25.72C47.8382 23.8267 46.8516 20.8 46.8516 16.64C46.8516 12.56 47.9449 9.58667 50.1316 7.72C52.3182 5.85333 55.2116 4.92 58.8116 4.92C66.3849 4.92 70.1716 8.69333 70.1716 16.24C70.1716 20.0533 69.2382 23.0533 67.3716 25.24C65.5316 27.4267 62.6649 28.52 58.7716 28.52ZM58.6116 23.8C59.3582 23.8 59.9849 23.68 60.4916 23.44C60.9982 23.1733 61.3982 22.72 61.6916 22.08C62.2516 20.9867 62.5316 19.2 62.5316 16.72C62.5316 14.2933 62.2516 12.5333 61.6916 11.44C61.1316 10.32 60.1049 9.73333 58.6116 9.68C58.0516 9.68 57.4649 9.74667 56.8516 9.88C56.2649 9.98667 55.8916 10.1467 55.7316 10.36C55.4116 10.7333 55.1582 11.5333 54.9716 12.76C54.8116 13.96 54.7316 15.28 54.7316 16.72C54.7316 18.96 54.9449 20.6 55.3716 21.64C55.6649 22.4133 56.0782 22.9733 56.6116 23.32C57.1449 23.64 57.8116 23.8 58.6116 23.8ZM84.0647 5.2V19.8C84.0647 21.8267 83.878 23.4667 83.5047 24.72C83.1314 25.9733 82.4647 26.92 81.5047 27.56C80.5714 28.2 79.2514 28.52 77.5447 28.52C75.7314 28.52 73.8247 28.3467 71.8247 28L72.4247 23.4C73.1714 23.4267 74.0247 23.4133 74.9847 23.36C75.9447 23.3067 76.4914 23.2 76.6247 23.04C76.7847 22.7733 76.8647 22.1333 76.8647 21.12C76.8647 20.1067 76.8647 19.5333 76.8647 19.4V5.2H84.0647ZM87.9469 5.2H104.547V10H95.1469V14.16H103.067V18.48H95.1469V23.12H104.507V28H87.9469V5.2ZM129.03 28H121.15L116.71 19.48C116.63 19.3467 116.417 18.9733 116.07 18.36C115.75 17.7467 115.39 17.16 114.99 16.6V28H107.79V5.2H114.99V15.56C115.443 15.0533 115.83 14.5067 116.15 13.92C116.497 13.3067 116.697 12.9467 116.75 12.84L121.03 5.2H128.63L124.07 12.84C123.99 12.9467 123.817 13.2267 123.55 13.68C123.283 14.1333 122.99 14.56 122.67 14.96C122.377 15.3333 122.057 15.68 121.71 16C122.19 16.4533 122.577 16.9067 122.87 17.36C123.19 17.7867 123.55 18.36 123.95 19.08L129.03 28ZM142.907 28H135.707V10.2H129.267V5.2H149.347V10.2H142.907V28Z" fill="white"/>
<path d="M174.206 22H166.238L164.798 28H155.966L164.798 0.639997H176.078L184.526 28H175.646L174.206 22ZM170.174 6.544L167.342 16.672H173.054L170.366 6.544H170.174ZM222.343 28H214.279L213.655 12.928C213.559 9.952 213.447 7.696 213.319 6.16H213.175C212.791 7.376 212.343 9.264 211.831 11.824L211.591 13.024L208.279 28H200.215L197.431 14.512L196.951 12.112C196.279 9.136 195.815 7.152 195.559 6.16H195.415C195.287 7.76 195.175 10.368 195.079 13.984C195.047 14.208 195.031 14.56 195.031 15.04L194.599 28H186.487L187.639 0.639997H201.367L203.719 12.448L204.295 15.616C204.551 14.624 204.791 13.52 205.015 12.304L207.223 0.639997H221.239L222.343 28ZM239.603 28.624C234.835 28.624 231.251 27.504 228.851 25.264C226.483 22.992 225.299 19.36 225.299 14.368C225.299 9.472 226.611 5.904 229.235 3.664C231.859 1.424 235.331 0.303999 239.651 0.303999C248.739 0.303999 253.283 4.832 253.283 13.888C253.283 18.464 252.163 22.064 249.923 24.688C247.715 27.312 244.275 28.624 239.603 28.624ZM239.411 22.96C240.307 22.96 241.059 22.816 241.667 22.528C242.275 22.208 242.755 21.664 243.107 20.896C243.779 19.584 244.115 17.44 244.115 14.464C244.115 11.552 243.779 9.44 243.107 8.128C242.435 6.784 241.203 6.08 239.411 6.016C238.739 6.016 238.035 6.096 237.299 6.256C236.595 6.384 236.147 6.576 235.955 6.832C235.571 7.28 235.267 8.24 235.043 9.712C234.851 11.152 234.755 12.736 234.755 14.464C234.755 17.152 235.011 19.12 235.523 20.368C235.875 21.296 236.371 21.968 237.011 22.384C237.651 22.768 238.451 22.96 239.411 22.96ZM265.125 8.032C265.125 8.704 265.461 9.232 266.133 9.616C266.837 10 267.925 10.416 269.397 10.864C271.157 11.44 272.597 12 273.717 12.544C274.869 13.088 275.861 13.936 276.693 15.088C277.557 16.24 277.989 17.744 277.989 19.6C277.989 25.552 274.117 28.528 266.373 28.528C265.093 28.528 263.525 28.416 261.669 28.192C259.845 27.968 258.181 27.68 256.677 27.328C256.741 26.656 256.869 25.68 257.061 24.4C257.285 23.088 257.493 22.112 257.685 21.472C258.805 21.632 260.485 21.824 262.725 22.048C264.997 22.272 266.709 22.384 267.861 22.384C268.533 22.384 268.933 22.336 269.061 22.24C269.253 22.112 269.397 21.904 269.493 21.616C269.621 21.296 269.685 21.024 269.685 20.8C269.685 20.16 269.381 19.68 268.773 19.36C268.165 19.008 267.125 18.592 265.653 18.112C263.893 17.568 262.437 17.008 261.285 16.432C260.133 15.856 259.125 14.96 258.261 13.744C257.397 12.528 256.965 10.928 256.965 8.944C256.965 7.536 257.285 6.16 257.925 4.816C258.565 3.44 259.221 2.512 259.893 2.032C260.405 1.68 261.461 1.344 263.061 1.024C264.661 0.703999 266.165 0.543999 267.573 0.543999C271.157 0.543999 274.085 0.879999 276.357 1.552C276.325 2.192 276.213 3.072 276.021 4.192C275.861 5.312 275.685 6.336 275.493 7.264L274.389 7.216C270.229 6.928 267.573 6.784 266.421 6.784C265.941 6.784 265.669 6.8 265.605 6.832C265.477 6.896 265.365 7.04 265.269 7.264C265.173 7.488 265.125 7.744 265.125 8.032Z" fill="#74C7D3"/>
</svg>
