<svg width="186" height="87" viewBox="0 0 186 87" fill="none" xmlns="http://www.w3.org/2000/svg">
<path d="M11.2 4.08C13.36 4.08 15.1867 4.28 16.68 4.68C18.1733 5.08 19.36 5.85333 20.24 7C21.1467 8.12 21.6 9.73333 21.6 11.84C21.6 12.7733 21.4533 13.7333 21.16 14.72C20.8933 15.68 20.5467 16.52 20.12 17.24C19.72 17.96 19.36 18.4267 19.04 18.64C18.6667 18.9067 17.84 19.12 16.56 19.28C15.28 19.4133 13.7733 19.48 12.04 19.48C11.4267 19.48 10.48 19.4533 9.2 19.4V27H2V4.2C4.8 4.12 7.86667 4.08 11.2 4.08ZM14.2 14.36C14.4667 14.0133 14.6 13.32 14.6 12.28C14.6 10.92 14.3067 9.96 13.72 9.4C13.16 8.84 12.1733 8.56 10.76 8.56C10.28 8.56 9.76 8.6 9.2 8.68V14.76C9.46667 14.7867 9.98667 14.8 10.76 14.8C12.8133 14.8 13.96 14.6533 14.2 14.36ZM45.0584 27H37.4984L36.1384 21.24C36.0851 21.0267 35.9918 20.6667 35.8584 20.16C35.7518 19.6267 35.6184 19.24 35.4584 19C35.2984 18.7333 35.0718 18.56 34.7784 18.48C34.0318 18.5067 32.9384 18.52 31.4984 18.52V27H24.2984V4.4C27.5251 4.16 30.5384 4.04 33.3384 4.04C35.8718 4.04 37.9251 4.25333 39.4984 4.68C41.0718 5.08 42.2451 5.78667 43.0184 6.8C43.8184 7.78667 44.2184 9.14667 44.2184 10.88C44.2184 12.5067 43.8451 13.7867 43.0984 14.72C42.3518 15.6267 41.1518 16.1733 39.4984 16.36V16.6C40.4318 16.68 41.2051 16.9867 41.8184 17.52C42.4584 18.0267 42.8851 18.68 43.0984 19.48L45.0584 27ZM31.4984 14C31.7384 14.0267 32.2051 14.04 32.8984 14.04C34.9518 14.04 36.1518 13.8667 36.4984 13.52C36.8184 13.2 36.9784 12.4533 36.9784 11.28C36.9784 10.1867 36.6851 9.44 36.0984 9.04C35.5384 8.64 34.6051 8.44 33.2984 8.44C33.0051 8.44 32.4051 8.46667 31.4984 8.52V14ZM58.7716 27.52C54.7982 27.52 51.8116 26.5867 49.8116 24.72C47.8382 22.8267 46.8516 19.8 46.8516 15.64C46.8516 11.56 47.9449 8.58667 50.1316 6.72C52.3182 4.85333 55.2116 3.92 58.8116 3.92C66.3849 3.92 70.1716 7.69333 70.1716 15.24C70.1716 19.0533 69.2382 22.0533 67.3716 24.24C65.5316 26.4267 62.6649 27.52 58.7716 27.52ZM58.6116 22.8C59.3582 22.8 59.9849 22.68 60.4916 22.44C60.9982 22.1733 61.3982 21.72 61.6916 21.08C62.2516 19.9867 62.5316 18.2 62.5316 15.72C62.5316 13.2933 62.2516 11.5333 61.6916 10.44C61.1316 9.32 60.1049 8.73333 58.6116 8.68C58.0516 8.68 57.4649 8.74667 56.8516 8.88C56.2649 8.98667 55.8916 9.14667 55.7316 9.36C55.4116 9.73333 55.1582 10.5333 54.9716 11.76C54.8116 12.96 54.7316 14.28 54.7316 15.72C54.7316 17.96 54.9449 19.6 55.3716 20.64C55.6649 21.4133 56.0782 21.9733 56.6116 22.32C57.1449 22.64 57.8116 22.8 58.6116 22.8ZM84.0647 4.2V18.8C84.0647 20.8267 83.878 22.4667 83.5047 23.72C83.1314 24.9733 82.4647 25.92 81.5047 26.56C80.5714 27.2 79.2514 27.52 77.5447 27.52C75.7314 27.52 73.8247 27.3467 71.8247 27L72.4247 22.4C73.1714 22.4267 74.0247 22.4133 74.9847 22.36C75.9447 22.3067 76.4914 22.2 76.6247 22.04C76.7847 21.7733 76.8647 21.1333 76.8647 20.12C76.8647 19.1067 76.8647 18.5333 76.8647 18.4V4.2H84.0647ZM87.9469 4.2H104.547V9H95.1469V13.16H103.067V17.48H95.1469V22.12H104.507V27H87.9469V4.2ZM129.03 27H121.15L116.71 18.48C116.63 18.3467 116.417 17.9733 116.07 17.36C115.75 16.7467 115.39 16.16 114.99 15.6V27H107.79V4.2H114.99V14.56C115.443 14.0533 115.83 13.5067 116.15 12.92C116.497 12.3067 116.697 11.9467 116.75 11.84L121.03 4.2H128.63L124.07 11.84C123.99 11.9467 123.817 12.2267 123.55 12.68C123.283 13.1333 122.99 13.56 122.67 13.96C122.377 14.3333 122.057 14.68 121.71 15C122.19 15.4533 122.577 15.9067 122.87 16.36C123.19 16.7867 123.55 17.36 123.95 18.08L129.03 27ZM142.907 27H135.707V9.2H129.267V4.2H149.347V9.2H142.907V27ZM18.24 60H10.272L8.832 66H0L8.832 38.64H20.112L28.56 66H19.68L18.24 60ZM14.208 44.544L11.376 54.672H17.088L14.4 44.544H14.208ZM66.3769 66H58.3129L57.6889 50.928C57.5929 47.952 57.4809 45.696 57.3529 44.16H57.2089C56.8249 45.376 56.3769 47.264 55.8649 49.824L55.6249 51.024L52.3129 66H44.2489L41.4649 52.512L40.9849 50.112C40.3129 47.136 39.8489 45.152 39.5929 44.16H39.4489C39.3209 45.76 39.2089 48.368 39.1129 51.984C39.0809 52.208 39.0649 52.56 39.0649 53.04L38.6329 66H30.5209L31.6729 38.64H45.4009L47.7529 50.448L48.3289 53.616C48.5849 52.624 48.8249 51.52 49.0489 50.304L51.2569 38.64H65.2729L66.3769 66ZM83.6378 66.624C78.8698 66.624 75.2858 65.504 72.8858 63.264C70.5178 60.992 69.3338 57.36 69.3338 52.368C69.3338 47.472 70.6458 43.904 73.2698 41.664C75.8938 39.424 79.3658 38.304 83.6858 38.304C92.7738 38.304 97.3178 42.832 97.3178 51.888C97.3178 56.464 96.1978 60.064 93.9578 62.688C91.7498 65.312 88.3098 66.624 83.6378 66.624ZM83.4458 60.96C84.3418 60.96 85.0938 60.816 85.7018 60.528C86.3098 60.208 86.7898 59.664 87.1418 58.896C87.8138 57.584 88.1498 55.44 88.1498 52.464C88.1498 49.552 87.8138 47.44 87.1418 46.128C86.4698 44.784 85.2378 44.08 83.4458 44.016C82.7738 44.016 82.0698 44.096 81.3338 44.256C80.6298 44.384 80.1818 44.576 79.9898 44.832C79.6058 45.28 79.3018 46.24 79.0778 47.712C78.8858 49.152 78.7898 50.736 78.7898 52.464C78.7898 55.152 79.0458 57.12 79.5578 58.368C79.9098 59.296 80.4058 59.968 81.0458 60.384C81.6858 60.768 82.4858 60.96 83.4458 60.96ZM109.159 46.032C109.159 46.704 109.495 47.232 110.167 47.616C110.871 48 111.959 48.416 113.431 48.864C115.191 49.44 116.631 50 117.751 50.544C118.903 51.088 119.895 51.936 120.727 53.088C121.591 54.24 122.023 55.744 122.023 57.6C122.023 63.552 118.151 66.528 110.407 66.528C109.127 66.528 107.559 66.416 105.703 66.192C103.879 65.968 102.215 65.68 100.711 65.328C100.775 64.656 100.903 63.68 101.095 62.4C101.319 61.088 101.527 60.112 101.719 59.472C102.839 59.632 104.519 59.824 106.759 60.048C109.031 60.272 110.743 60.384 111.895 60.384C112.567 60.384 112.967 60.336 113.095 60.24C113.287 60.112 113.431 59.904 113.527 59.616C113.655 59.296 113.719 59.024 113.719 58.8C113.719 58.16 113.415 57.68 112.807 57.36C112.199 57.008 111.159 56.592 109.687 56.112C107.927 55.568 106.471 55.008 105.319 54.432C104.167 53.856 103.159 52.96 102.295 51.744C101.431 50.528 100.999 48.928 100.999 46.944C100.999 45.536 101.319 44.16 101.959 42.816C102.599 41.44 103.255 40.512 103.927 40.032C104.439 39.68 105.495 39.344 107.095 39.024C108.695 38.704 110.199 38.544 111.607 38.544C115.191 38.544 118.119 38.88 120.391 39.552C120.359 40.192 120.247 41.072 120.055 42.192C119.895 43.312 119.719 44.336 119.527 45.264L118.423 45.216C114.263 44.928 111.607 44.784 110.455 44.784C109.975 44.784 109.703 44.8 109.639 44.832C109.511 44.896 109.399 45.04 109.303 45.264C109.207 45.488 109.159 45.744 109.159 46.032Z" fill="white"/>
<g clip-path="url(#clip0_3_7047)">
<path d="M174.443 86.9799L161.275 73.818L153.282 81.8077L141 42L180.826 54.2764L172.832 62.2661L186 75.428L174.443 87V86.9799Z" fill="white"/>
</g>
<defs>
<clipPath id="clip0_3_7047">
<rect width="45" height="45" fill="white" transform="translate(141 42)"/>
</clipPath>
</defs>
</svg>
